<?xml version="1.0" encoding="UTF-8" standalone="no"?><!DOCTYPE svg PUBLIC "-//W3C//DTD SVG 1.1//EN" "http://www.w3.org/Graphics/SVG/1.1/DTD/svg11.dtd"><svg width="100%" height="100%" viewBox="0 0 2179 561" version="1.1" xmlns="http://www.w3.org/2000/svg" xmlns:xlink="http://www.w3.org/1999/xlink" xml:space="preserve" xmlns:serif="http://www.serif.com/" style="fill-rule:evenodd;clip-rule:evenodd;stroke-linejoin:round;stroke-miterlimit:2;"><rect id="Page-1" serif:id="Page 1" x="0" y="0" width="2179" height="561" style="fill:none;"/><g id="Layer-1" serif:id="Layer 1"><path d="M251.917,180.708c4.248,-4.983 8.236,-10.002 10.898,-15.865c3.853,-8.308 0.531,-14.954 -9.196,-12.206c-9.587,2.645 -18.263,9.471 -25.993,15.724c-8.033,6.63 -16.053,13.373 -23.713,19.941c-16.329,14.055 -31.389,30.426 -43.918,48.035c-11.796,16.69 -21.687,35.754 -30.682,54.16c-17.429,34.882 -26.782,74.03 -20.73,112.89c1.534,10.253 5.178,19.764 9.215,29.35c5.255,12.432 9.995,25.25 15.461,37.48c8.584,15.997 23.99,26.69 39.462,35.4c48.991,27.764 123.654,31.553 179.336,23.81c11.147,-2.22 22.315,-6.513 33.689,-10.084c106.207,-30.578 205.08,-102.096 251.467,-204.017c2.857,-6.34 5.43,-12.538 7.841,-19.164c3.481,-10.34 10.201,-26.6 3.72,-35.717c-3.284,-4.383 -9.87,-5.461 -15.502,-5.832c-30.8,-1.352 -67.564,2.608 -99.485,4.928c-52.232,3.1 -104.568,8.428 -155.379,18.185c-34.724,6.577 -69.524,12.825 -103.694,22.265c-15.094,5.089 -30.352,8.693 -46.38,6.109c-7.755,-1.171 -15.724,-2.605 -22.961,-5.647c-13.583,-5.515 -18.544,-18.85 -15.361,-32.519c8.813,-34.077 38.114,-61.759 61.779,-87.083l0.126,-0.143Zm104.453,-61.508c-47.157,33.498 -86.438,74.914 -124.236,118.729c-27.674,31.016 -19.403,42.485 20.953,41.449c8.855,-0.336 17.633,-1.919 26.537,-3.672c24.679,-4.449 48.756,-11.043 73.263,-16.181c19.028,-3.627 38.459,-5.814 57.389,-9.997c59.198,-12.887 121.547,-13.872 182.093,-15.014c15.849,-0.327 31.362,1.108 47.277,1.718c10.925,0.233 18.482,-3.719 20.054,-14.769c1.743,-12.27 0.481,-25.449 -1.191,-37.366c-2.462,-16.398 -7.384,-32.138 -14.647,-47.004c-16.883,-35.532 -46.658,-66.316 -85.574,-76.616c-15.2,-4.282 -31.13,-5.272 -46.993,-3.903c-56.97,4.971 -108.936,29.001 -154.758,62.505l-0.167,0.121Zm277.801,-38.991c28.564,29.223 43.441,68.863 48.829,108.729c0.761,6.198 1.051,12.585 1.303,18.804c0.328,7.963 0.846,17.182 7.527,22.23c3.431,2.733 8.288,4.117 13.922,4.687c6.851,0.669 14.551,0.735 21.715,0.991c70.742,0.413 141.453,9.033 212.076,10.167c15.933,0.203 31.884,0.214 47.818,0.287c10.426,-0.103 21.753,0.257 32.078,-1.328c7.955,-1.462 13.619,-4.64 7.837,-10.408c-8.514,-6.777 -20.405,-9.386 -30.483,-13.44c-10.503,-3.934 -20.814,-9.021 -31.45,-13.406c-6.8,-2.935 -14.562,-5.843 -20.097,-10.683c-10.923,-9.156 -2.609,-25.393 9.703,-28.369c11.798,-3.13 24.103,2.073 35.736,4.582c40.042,9.556 79.353,21.704 118.302,35.436c21.388,8.621 18.663,22.7 29.362,38.404c7.055,9.532 20.05,12.845 28.207,20.901c14.423,13.764 2.972,29.362 -12.802,35.763c-14.311,6.095 -29.572,10.889 -44.595,14.94c-27.609,7.384 -56.732,7.851 -85.488,9.338c-13.768,0.471 -27.994,4.67 -41.475,1.358c-9.343,-2.197 -16.938,-11.209 -13.583,-20.504c2.434,-7.905 11.318,-12.723 19.221,-14.846c17.457,-5.619 37.174,-0.611 55.078,1.063c18.149,1.922 36.361,1.011 54.09,-3.801c13.645,-3.642 24.013,-12.525 5.321,-22.466c-18.667,-9.4 -39.97,-7.345 -60.048,-5.03c-34.334,4.155 -68.844,3.48 -103.437,3.42c-80.897,0.614 -162.054,-12.122 -243.007,-7.209c-9.37,1.529 -15.979,7.69 -19.268,16.163c-4.797,12.672 -7.377,26.762 -13.096,38.93c-50.116,110.367 -144.899,185.932 -260.923,221.345c-77.803,24.184 -180.328,25.746 -252.635,-15.093c-73.71,-43.274 -77.719,-142.741 -50.886,-217.428c5.83,-16.827 14.992,-32.118 24.394,-47.266c13.678,-23.786 28.454,-46.681 46.862,-67.186c22.542,-25.273 48.565,-52.948 81.568,-63.307c12.001,-3.56 20.613,-0.519 31.18,4.326c5.896,2.505 12.14,3.706 18.262,1.276c10.809,-4.248 19.533,-13.728 28.713,-20.918c34.668,-27.923 73.106,-52.43 115.259,-67.078c39.665,-13.505 82.672,-15.923 123.325,-5.202c25.246,7.807 46.987,22.418 65.445,41.683l0.14,0.145Z" style="fill-rule:nonzero;"/><path d="M2037.107,97.092c7.985,7.168 7.783,21.158 7.978,31.499c-1.004,104.954 -7.061,210.338 6.373,314.736c2.367,18.893 17.344,48.694 -5.573,59.726c-17.867,6.414 -27.056,-14.688 -26.691,-29.393c-13.169,-219.016 -6.687,-47.867 -170.425,11.621c-26.374,6.568 -63.745,3.092 -77.262,-23.709c-9.94,-19.811 7.971,-43.873 -24.082,-47.155c-50.384,-4.112 -86.783,-13.103 -112.708,39.282c-44.764,47.802 -78.662,-77.598 -126.418,-41.619c-8.294,6.972 -14.685,16.459 -23.104,23.373c-22.184,18.38 -58.464,30.202 -82.799,10.237c-8.574,-7.901 -22.768,-20.57 -21.792,-32.964c0.879,-5.622 4.98,-12.042 10.512,-14.605c19.768,-11.259 41.987,-44.805 66.832,-25.961c8.076,6.496 5.274,17.807 -0.646,24.709c-3.399,6.838 -28.747,19.903 -23.671,25.843c36.067,7.638 49.51,-41.52 79.641,-51.298c21.754,-6.899 41.264,10.615 56.195,24.907c12.082,10.531 28.832,45.75 45.975,21.927c10.449,-16.392 23.676,-31.921 43.642,-35.121c39.305,-7.208 77.848,4.907 116.398,11.763c22.085,4.048 38.095,-15.316 57.867,-20.846c22.364,-6.285 50.976,-11.017 72.913,-0.402c25.426,15.109 2.76,37.329 -17.637,41.061c-25.518,10.379 -60.292,0.788 -81.682,19.1c-8.135,8.994 -6.363,21.366 7.523,25.305c8.897,2.385 18.014,1.141 26.942,-0.44c88.489,-21.505 173.297,-128.051 162.158,-219.592c-1.13,-14.429 0.823,-28.874 0.833,-43.307c-0.277,-20.734 -2.749,-42.781 -0.91,-63.512c-0.697,-17.649 13.635,-48.674 33.467,-35.283l0.151,0.118Z" style="fill-rule:nonzero;"/><path d="M798.048,449.892c14.822,-17.644 25.857,-52.607 50.061,-58.247c18.047,-3.013 23.01,16.54 25.314,30.482c4.239,19.521 6.028,50.37 22.807,62.646c29.997,18.111 60.4,-20.506 81.425,-38.839c9.883,-9.028 20.489,-16.112 32.916,-21.147c10.589,-4.542 23.421,-8.185 34.574,-9.666c6.841,-0.995 13.535,-1.733 20.016,-3.984c4.451,-1.505 8.641,-3.775 12.776,-6.124c7.423,-4.41 17.148,-9.162 25.137,-7.682c8.636,1.368 14.172,10.688 12.529,19.258c-3.168,16.891 -20.312,30.529 -10.967,49.051c4.366,9.498 14.557,15.36 24.906,14.585c13.812,-0.749 28.998,-13.709 39.924,-26.033c5.52,-6.1 9.36,-13.326 13.08,-20.444c3.693,-6.873 8.552,-14.126 15.993,-16.5c6.383,-2.285 13.383,0.791 17.721,6.397c7.49,8.995 11.023,27.332 22.62,32.609c12.825,5.757 29.308,-2.755 38.877,-11.752c2.752,-2.65 5.204,-5.594 7.379,-8.757c11.4,-14.029 19.767,-58.676 42.217,-55.918c8.481,1.233 17.101,10.7 21.452,18.388c4.129,7.371 5.25,14.122 -0.756,19.871c-7.203,6.47 -15.911,10.494 -22.807,17.805c-2.376,2.402 -4.569,5.007 -6.703,7.698c-18.845,24.613 -49.774,56.394 -83.18,44.814c-6.681,-2.393 -13.042,-6.38 -19.196,-9.73c-4.813,-2.603 -9.94,-4.942 -15.359,-4.323c-5.334,0.593 -9.776,4.008 -13.934,7.593c-4.556,4.037 -8.762,8.208 -13.909,11.973c-39.968,28.473 -73.086,24.861 -97.731,-19.003c-4.871,-8.47 -8.304,-20.549 -13.688,-26.684c-5.01,-6.231 -13.197,-6.145 -20.457,-4.246c-9.291,2.43 -18.225,5.125 -27.017,8.753c-29.875,13.765 -49.788,50.511 -81.85,63.994c-10.358,4.317 -22.171,7.368 -33.098,4.39c-18.684,-5.786 -33.729,-27.739 -39.63,-46.252c-3.541,-9.235 -10.278,-39.11 -24.368,-27.741c-7.259,6.882 -11.663,17.127 -17.683,25.197c-5.756,8.284 -12.404,15.567 -18.962,23.019c-6.437,6.952 -13.966,15.53 -24.066,15.502c-28.096,-3.277 -28.19,-54.222 -31.169,-75.834c-0.819,-9.578 -1.962,-19.382 -3.969,-28.515c-2.02,-9.585 -4.257,-20.947 1.274,-29.485c6.81,-10.263 22.237,-9.153 27.88,1.681c3.898,6.869 4.084,15.189 4.583,23.771c0.373,7.59 0.968,15.189 1.324,22.77c0.286,5.89 0.34,11.867 0.213,17.793c0.047,5.563 -0.505,11.458 2.064,16.362c5.462,8.48 17.02,-3.561 21.312,-9.337l0.125,-0.159Z" style="fill-rule:nonzero;"/></g></svg>