<?xml version="1.0" encoding="UTF-8" standalone="no"?><!DOCTYPE svg PUBLIC "-//W3C//DTD SVG 1.1//EN" "http://www.w3.org/Graphics/SVG/1.1/DTD/svg11.dtd"><svg width="100%" height="100%" viewBox="0 0 1920 1080" version="1.1" xmlns="http://www.w3.org/2000/svg" xmlns:xlink="http://www.w3.org/1999/xlink" xml:space="preserve" xmlns:serif="http://www.serif.com/" style="fill-rule:evenodd;clip-rule:evenodd;stroke-linejoin:round;stroke-miterlimit:2;"><rect id="Page-1" serif:id="Page 1" x="0" y="0" width="1920" height="1080" style="fill:none;"/><g id="Layer-1" serif:id="Layer 1"><path d="M357.436,717.399c-97.285,0 -176.149,-78.865 -176.149,-176.149c0,-97.285 78.864,-176.15 176.149,-176.15c97.285,0 176.149,78.865 176.149,176.15c0,97.284 -78.864,176.149 -176.149,176.149m0,-465.034c-159.547,0 -288.885,129.338 -288.885,288.885c0,159.546 129.338,288.885 288.885,288.885c159.547,0 288.885,-129.339 288.885,-288.885c0,-159.547 -129.338,-288.885 -288.885,-288.885" style="fill-rule:nonzero;"/><path d="M684.409,296.512l177.319,516.344c3.04,8.851 11.366,14.795 20.725,14.795l360.031,0c18.534,0 28.698,-21.579 16.893,-35.868l-446.177,-494.52c-4.385,-6.326 -32.276,-20.775 -40.399,-21.207l-67.502,-8.573c-15.109,-0.114 -25.798,14.738 -20.89,29.029" style="fill-rule:nonzero;"/><path d="M1845.065,504.256l-243.153,-249.389c-6.503,-6.67 -16.913,-6.67 -23.417,0l-125.193,128.404l0,-64.521c0,-9.662 -7.488,-17.495 -16.725,-17.495l-90.893,0c-9.237,0 -16.725,7.833 -16.725,17.495l0,479.184c0,12.296 9.53,22.264 21.284,22.264l479.921,0c11.755,0 21.284,-9.968 21.284,-22.264l0,-277.78c0,-5.981 -2.3,-11.711 -6.383,-15.898" style="fill-rule:nonzero;"/></g></svg>