<?xml version="1.0" encoding="UTF-8"?>
<svg id="Layer_1" data-name="Layer 1" xmlns="http://www.w3.org/2000/svg" version="1.1" viewBox="0 0 120 120">
  <defs>
    <style>
      .cls-1 {
        fill: #000;
        stroke-width: 0px;
      }
    </style>
  </defs>
  <path class="cls-1" d="M15.2,42.9c0-3.9,1-6.8,3.1-8.8,2.1-2,5.1-3,9-3h65.4c3.9,0,6.9,1,9,3,2.1,2,3.1,5,3.1,8.8v34.1c0,3.9-1,6.9-3.1,8.9-2.1,2-5.1,3-9,3H27.3c-3.9,0-6.9-1-9-3-2.1-2-3.1-5-3.1-8.9v-34.1ZM23.3,81.3c.9.9,2.3,1.4,4,1.4h65.5c1.7,0,3-.5,4-1.4.9-.9,1.4-2.3,1.4-4v-34.8c0-3.6-1.8-5.4-5.4-5.4H27.3c-3.6,0-5.4,1.8-5.4,5.4v34.8c0,1.7.5,3,1.4,4ZM36.5,64.2c-1.2-1.2-1.8-2.6-1.8-4.2s.6-3.1,1.8-4.2c1.2-1.2,2.6-1.8,4.2-1.8s3,.6,4.2,1.8c1.2,1.2,1.8,2.6,1.8,4.2s-.6,3.1-1.8,4.2c-1.2,1.2-2.6,1.8-4.2,1.8s-3.1-.6-4.2-1.8ZM55.8,64.2c-1.2-1.2-1.8-2.6-1.8-4.2s.6-3.1,1.8-4.2c1.2-1.2,2.6-1.8,4.2-1.8s3.1.6,4.2,1.8c1.2,1.2,1.8,2.6,1.8,4.2s-.6,3.1-1.8,4.2c-1.2,1.2-2.6,1.8-4.2,1.8s-3-.6-4.2-1.8ZM75.1,64.2c-1.2-1.2-1.8-2.6-1.8-4.2s.6-3.1,1.8-4.2c1.2-1.2,2.6-1.8,4.2-1.8s3.1.6,4.2,1.8c1.2,1.2,1.8,2.6,1.8,4.2s-.6,3.1-1.8,4.2c-1.2,1.2-2.6,1.8-4.2,1.8s-3.1-.6-4.2-1.8Z"/>
</svg>