<?xml version="1.0" encoding="UTF-8"?>
<svg id="Layer_1" data-name="Layer 1" xmlns="http://www.w3.org/2000/svg" version="1.1" viewBox="0 0 120 120">
  <defs>
    <style>
      .cls-1 {
        fill: #000;
        stroke-width: 0px;
      }
    </style>
  </defs>
  <path class="cls-1" d="M21.1,60c0-6,1.3-11.6,3.8-16.7,2.5-5.2,5.9-9.5,10.2-13.1l3,5.1c-3.4,3-6.2,6.6-8.2,10.9-2,4.3-3,8.9-3,13.8s.9,8.8,2.6,12.8,4.1,7.5,7.1,10.5c3,3,6.5,5.4,10.5,7.1,4,1.7,8.3,2.6,12.8,2.6s8.8-.9,12.8-2.6c4-1.7,7.5-4.1,10.5-7.1,3-3,5.4-6.5,7.1-10.5,1.7-4,2.6-8.3,2.6-12.8s-1-9.5-3-13.8c-2-4.3-4.7-7.9-8.1-10.9l3-5.1c4.3,3.6,7.7,7.9,10.2,13.1,2.5,5.2,3.8,10.7,3.8,16.7s-1,10.4-3,15.1c-2,4.7-4.8,8.8-8.4,12.4-3.6,3.6-7.7,6.3-12.4,8.4-4.7,2-9.7,3-15.1,3s-10.4-1-15.1-3c-4.7-2-8.8-4.8-12.4-8.4-3.6-3.6-6.3-7.7-8.4-12.4-2-4.7-3-9.7-3-15.1ZM33.7,60c0-3.7.7-7.2,2.2-10.4,1.5-3.2,3.4-6.1,5.9-8.4l3.2,5.3c-1.7,1.8-3,3.8-3.9,6.2-.9,2.3-1.4,4.8-1.4,7.4s.5,5.5,1.6,7.9,2.5,4.7,4.4,6.5c1.9,1.9,4.1,3.3,6.5,4.4,2.5,1.1,5.1,1.6,7.9,1.6s5.5-.5,8-1.6c2.5-1.1,4.6-2.5,6.5-4.4,1.9-1.9,3.3-4,4.4-6.5s1.6-5.1,1.6-7.9-.5-5.1-1.4-7.4c-.9-2.3-2.2-4.4-3.9-6.2l3.2-5.3c2.5,2.4,4.4,5.2,5.8,8.4,1.4,3.2,2.2,6.7,2.2,10.4s-.7,7-2,10.2c-1.4,3.2-3.3,6-5.7,8.4-2.4,2.4-5.2,4.3-8.4,5.7-3.2,1.4-6.6,2-10.2,2s-7-.7-10.2-2c-3.2-1.4-6-3.2-8.4-5.7-2.4-2.4-4.3-5.2-5.7-8.4s-2-6.6-2-10.2ZM46.1,60c0-2,.4-3.8,1.2-5.5.8-1.7,1.8-3.2,3.1-4.5l-12.8-21.2c-.2-.3-.1-.5.1-.7,3.1-2.2,6.6-3.9,10.5-5.2,3.9-1.2,7.8-1.8,11.7-1.8s7.8.6,11.7,1.8c3.9,1.2,7.4,2.9,10.5,5.2.2.2.3.4.2.7l-12.8,21.2c1.3,1.3,2.3,2.7,3.1,4.5.8,1.7,1.2,3.6,1.2,5.5s-.6,4.8-1.9,6.9c-1.3,2.1-2.9,3.8-5,5-2.1,1.3-4.4,1.9-7,1.9s-4.8-.6-7-1.9c-2.1-1.3-3.8-2.9-5-5-1.2-2.1-1.9-4.4-1.9-6.9ZM45.2,30.5l3.5,5.8c1.7-.8,3.5-1.5,5.4-1.9,1.9-.4,3.9-.7,5.9-.7s4,.2,5.9.7c1.9.4,3.7,1.1,5.5,1.9l3.5-5.8c-2.2-1.1-4.6-2-7.1-2.6-2.5-.6-5.1-.9-7.7-.9s-5.2.3-7.7.9c-2.5.6-4.8,1.5-7.1,2.6ZM51.4,60c0,1.6.4,3,1.1,4.3.8,1.3,1.8,2.3,3.1,3.1,1.3.8,2.7,1.2,4.3,1.2s3-.4,4.3-1.2c1.3-.8,2.3-1.8,3.1-3.1.8-1.3,1.1-2.7,1.1-4.3s-.4-3-1.1-4.3c-.8-1.3-1.8-2.3-3.1-3.1-1.3-.8-2.7-1.1-4.3-1.1s-3,.4-4.3,1.1c-1.3.8-2.3,1.8-3.1,3.1-.8,1.3-1.1,2.7-1.1,4.3ZM51.7,41.3l3.5,5.7c.8-.3,1.5-.5,2.3-.6.8-.2,1.6-.2,2.4-.2s1.7,0,2.5.2c.8.2,1.6.4,2.3.6l3.5-5.7c-1.3-.6-2.6-1-3.9-1.3-1.4-.3-2.8-.4-4.3-.4s-2.9.1-4.3.4c-1.4.3-2.7.7-4,1.3ZM54.2,60c0-1.6.6-3,1.7-4.1,1.1-1.1,2.5-1.7,4.1-1.7s3,.6,4.1,1.7c1.1,1.1,1.7,2.5,1.7,4.1s-.6,2.9-1.7,4.1c-1.1,1.1-2.5,1.7-4.1,1.7s-2.9-.6-4.1-1.7c-1.1-1.1-1.7-2.5-1.7-4.1Z"/>
</svg>